G04 (created by PCBNEW-RS274X (2012-jan-04)-stable) date Thu 14 Jun 2012 11:36:26 AM EEST*
G01*
G70*
G90*
%MOIN*%
G04 Gerber Fmt 3.4, Leading zero omitted, Abs format*
%FSLAX34Y34*%
G04 APERTURE LIST*
%ADD10C,0.006000*%
%ADD11C,0.015000*%
G04 APERTURE END LIST*
G54D10*
G54D11*
X39370Y-40551D02*
X39370Y-57874D01*
X57874Y-39370D02*
X40551Y-39370D01*
X59055Y-57874D02*
X59055Y-40551D01*
X40551Y-59055D02*
X57874Y-59055D01*
X39370Y-57874D02*
X39375Y-57976D01*
X39388Y-58079D01*
X39411Y-58179D01*
X39442Y-58277D01*
X39481Y-58373D01*
X39529Y-58464D01*
X39584Y-58551D01*
X39647Y-58633D01*
X39716Y-58709D01*
X39792Y-58778D01*
X39874Y-58841D01*
X39961Y-58896D01*
X40052Y-58944D01*
X40148Y-58983D01*
X40246Y-59014D01*
X40346Y-59037D01*
X40449Y-59050D01*
X40551Y-59055D01*
X57874Y-59055D02*
X57976Y-59050D01*
X58079Y-59037D01*
X58179Y-59014D01*
X58277Y-58983D01*
X58373Y-58944D01*
X58464Y-58896D01*
X58551Y-58841D01*
X58633Y-58778D01*
X58709Y-58709D01*
X58778Y-58633D01*
X58841Y-58551D01*
X58896Y-58464D01*
X58944Y-58373D01*
X58983Y-58277D01*
X59014Y-58179D01*
X59037Y-58079D01*
X59050Y-57976D01*
X59055Y-57874D01*
X59055Y-40551D02*
X59050Y-40449D01*
X59037Y-40346D01*
X59014Y-40246D01*
X58983Y-40148D01*
X58944Y-40052D01*
X58896Y-39961D01*
X58841Y-39874D01*
X58778Y-39792D01*
X58709Y-39716D01*
X58633Y-39647D01*
X58551Y-39584D01*
X58464Y-39529D01*
X58373Y-39481D01*
X58277Y-39442D01*
X58179Y-39411D01*
X58079Y-39388D01*
X57976Y-39375D01*
X57874Y-39370D01*
X40551Y-39370D02*
X40449Y-39375D01*
X40346Y-39388D01*
X40246Y-39411D01*
X40148Y-39442D01*
X40052Y-39481D01*
X39961Y-39529D01*
X39874Y-39584D01*
X39792Y-39647D01*
X39716Y-39716D01*
X39647Y-39792D01*
X39584Y-39874D01*
X39529Y-39961D01*
X39481Y-40052D01*
X39442Y-40148D01*
X39411Y-40246D01*
X39388Y-40346D01*
X39375Y-40449D01*
X39370Y-40551D01*
M02*
