G04 (created by PCBNEW-RS274X (2012-jan-04)-stable) date Thu 14 Jun 2012 11:36:26 AM EEST*
G01*
G70*
G90*
%MOIN*%
G04 Gerber Fmt 3.4, Leading zero omitted, Abs format*
%FSLAX34Y34*%
G04 APERTURE LIST*
%ADD10C,0.006000*%
%ADD11C,0.035400*%
%ADD12C,0.055000*%
%ADD13R,0.060000X0.060000*%
%ADD14C,0.060000*%
%ADD15R,0.100000X0.100000*%
%ADD16C,0.100000*%
%ADD17C,0.070900*%
%ADD18C,0.118100*%
%ADD19C,0.196900*%
%ADD20R,0.055000X0.055000*%
%ADD21C,0.066000*%
%ADD22C,0.051200*%
%ADD23C,0.009800*%
%ADD24C,0.011800*%
%ADD25C,0.010000*%
G04 APERTURE END LIST*
G54D10*
G54D11*
X41142Y-43228D03*
X41142Y-44960D03*
G54D12*
X58110Y-42571D03*
X58110Y-43571D03*
G54D13*
X44669Y-57874D03*
G54D14*
X45669Y-57874D03*
X46669Y-57874D03*
G54D15*
X40945Y-47425D03*
G54D16*
X40945Y-49425D03*
G54D17*
X44520Y-54543D03*
X44520Y-53543D03*
G54D18*
X42520Y-55543D03*
X42520Y-51543D03*
G54D17*
X53905Y-52543D03*
X53905Y-53543D03*
G54D18*
X55905Y-51543D03*
X55905Y-55543D03*
G54D19*
X40551Y-57874D03*
X57874Y-57874D03*
X57874Y-40551D03*
X40551Y-40551D03*
G54D20*
X51531Y-39961D03*
G54D12*
X50531Y-39961D03*
X49531Y-39961D03*
X48531Y-39961D03*
X47531Y-39961D03*
X46531Y-39961D03*
X45531Y-39961D03*
X44531Y-39961D03*
G54D21*
X57874Y-49713D03*
X57874Y-48713D03*
X57874Y-46563D03*
X57874Y-45563D03*
G54D22*
X48189Y-58425D03*
X46260Y-45571D03*
X52067Y-50295D03*
X51673Y-41634D03*
X47539Y-45571D03*
X52953Y-51181D03*
X48898Y-57795D03*
X46161Y-41043D03*
X52362Y-41339D03*
X53150Y-46752D03*
X54724Y-46752D03*
X54724Y-46063D03*
X53150Y-46063D03*
X49508Y-41240D03*
X50984Y-41929D03*
X43898Y-44094D03*
X43110Y-43504D03*
X46850Y-53543D03*
X51496Y-55984D03*
X52598Y-55905D03*
X50787Y-52559D03*
X43701Y-42126D03*
X50197Y-47244D03*
X56220Y-56772D03*
X48524Y-42027D03*
X49213Y-54134D03*
X46851Y-42717D03*
X47441Y-56201D03*
X48661Y-56614D03*
X52165Y-51772D03*
X52559Y-53346D03*
X52165Y-48130D03*
X53839Y-44094D03*
X43110Y-44685D03*
X49213Y-45571D03*
X52165Y-46358D03*
X45472Y-46260D03*
X53248Y-54626D03*
X53307Y-57810D03*
X54035Y-55413D03*
X51102Y-54803D03*
X54409Y-54252D03*
X46457Y-50886D03*
X44488Y-45276D03*
X47638Y-43898D03*
X48661Y-52047D03*
X46929Y-52205D03*
G54D23*
X48189Y-58425D02*
X48819Y-57795D01*
X48819Y-57795D02*
X48898Y-57795D01*
X52067Y-50295D02*
X52953Y-51181D01*
X51673Y-41634D02*
X50531Y-40492D01*
X50531Y-40492D02*
X50531Y-39961D01*
X47539Y-45571D02*
X46260Y-45571D01*
X52362Y-42027D02*
X51771Y-42618D01*
X48130Y-42618D02*
X46555Y-41043D01*
X51771Y-42618D02*
X48130Y-42618D01*
X52362Y-41339D02*
X52362Y-42027D01*
X46555Y-41043D02*
X46161Y-41043D01*
X53150Y-46752D02*
X54724Y-46752D01*
X54724Y-46063D02*
X53150Y-46063D01*
X49508Y-41240D02*
X48531Y-40263D01*
X48531Y-40263D02*
X48531Y-39961D01*
X49531Y-40476D02*
X49531Y-39961D01*
X50984Y-41929D02*
X49531Y-40476D01*
G54D24*
X43308Y-43504D02*
X43110Y-43504D01*
X43898Y-44094D02*
X43308Y-43504D01*
G54D23*
X47441Y-56201D02*
X48248Y-56201D01*
X46850Y-55610D02*
X47441Y-56201D01*
X52598Y-55905D02*
X53543Y-55905D01*
X48248Y-56201D02*
X48661Y-56614D01*
X51279Y-54626D02*
X51102Y-54803D01*
X53248Y-54626D02*
X51279Y-54626D01*
X53543Y-55905D02*
X54035Y-55413D01*
X51496Y-55984D02*
X51575Y-55905D01*
X46850Y-53543D02*
X46850Y-55610D01*
X51575Y-55905D02*
X52598Y-55905D01*
X53307Y-57810D02*
X53307Y-57795D01*
X53248Y-54626D02*
X54035Y-55413D01*
X48661Y-52047D02*
X48503Y-52205D01*
X48503Y-52205D02*
X46929Y-52205D01*
G54D10*
G36*
X58812Y-57243D02*
X58681Y-57135D01*
X58613Y-57203D01*
X58613Y-57067D01*
X58613Y-41358D01*
X57874Y-40619D01*
X57806Y-40687D01*
X57806Y-40551D01*
X57067Y-39812D01*
X56931Y-39925D01*
X56764Y-40333D01*
X56765Y-40774D01*
X56931Y-41177D01*
X57067Y-41290D01*
X57806Y-40551D01*
X57806Y-40687D01*
X57135Y-41358D01*
X57248Y-41494D01*
X57656Y-41661D01*
X58097Y-41660D01*
X58500Y-41494D01*
X58613Y-41358D01*
X58613Y-57067D01*
X58529Y-56965D01*
X58529Y-43623D01*
X58529Y-42623D01*
X58517Y-42458D01*
X58478Y-42363D01*
X58415Y-42334D01*
X58347Y-42402D01*
X58347Y-42266D01*
X58318Y-42203D01*
X58162Y-42152D01*
X57997Y-42164D01*
X57902Y-42203D01*
X57873Y-42266D01*
X58110Y-42503D01*
X58347Y-42266D01*
X58347Y-42402D01*
X58178Y-42571D01*
X58415Y-42808D01*
X58478Y-42779D01*
X58529Y-42623D01*
X58529Y-43623D01*
X58517Y-43458D01*
X58478Y-43363D01*
X58415Y-43334D01*
X58347Y-43402D01*
X58347Y-43266D01*
X58347Y-42876D01*
X58110Y-42639D01*
X58042Y-42707D01*
X58042Y-42571D01*
X57805Y-42334D01*
X57742Y-42363D01*
X57691Y-42519D01*
X57703Y-42684D01*
X57742Y-42779D01*
X57805Y-42808D01*
X58042Y-42571D01*
X58042Y-42707D01*
X57873Y-42876D01*
X57902Y-42939D01*
X58058Y-42990D01*
X58223Y-42978D01*
X58318Y-42939D01*
X58347Y-42876D01*
X58347Y-43266D01*
X58318Y-43203D01*
X58162Y-43152D01*
X57997Y-43164D01*
X57902Y-43203D01*
X57873Y-43266D01*
X58110Y-43503D01*
X58347Y-43266D01*
X58347Y-43402D01*
X58178Y-43571D01*
X58415Y-43808D01*
X58478Y-43779D01*
X58529Y-43623D01*
X58529Y-56965D01*
X58500Y-56931D01*
X58371Y-56878D01*
X58371Y-49813D01*
X58371Y-49615D01*
X58371Y-46663D01*
X58371Y-46465D01*
X58348Y-46408D01*
X58348Y-45627D01*
X58347Y-45611D01*
X58347Y-43876D01*
X58110Y-43639D01*
X58042Y-43707D01*
X58042Y-43571D01*
X57805Y-43334D01*
X57742Y-43363D01*
X57691Y-43519D01*
X57703Y-43684D01*
X57742Y-43779D01*
X57805Y-43808D01*
X58042Y-43571D01*
X58042Y-43707D01*
X57873Y-43876D01*
X57902Y-43939D01*
X58058Y-43990D01*
X58223Y-43978D01*
X58318Y-43939D01*
X58347Y-43876D01*
X58347Y-45611D01*
X58336Y-45441D01*
X58287Y-45323D01*
X58218Y-45287D01*
X58150Y-45355D01*
X58150Y-45219D01*
X58114Y-45150D01*
X57938Y-45089D01*
X57752Y-45101D01*
X57634Y-45150D01*
X57598Y-45219D01*
X57874Y-45495D01*
X58150Y-45219D01*
X58150Y-45355D01*
X57942Y-45563D01*
X58218Y-45839D01*
X58287Y-45803D01*
X58348Y-45627D01*
X58348Y-46408D01*
X58296Y-46282D01*
X58156Y-46142D01*
X58150Y-46139D01*
X58150Y-45907D01*
X57874Y-45631D01*
X57806Y-45699D01*
X57806Y-45563D01*
X57530Y-45287D01*
X57461Y-45323D01*
X57400Y-45499D01*
X57412Y-45685D01*
X57461Y-45803D01*
X57530Y-45839D01*
X57806Y-45563D01*
X57806Y-45699D01*
X57598Y-45907D01*
X57634Y-45976D01*
X57810Y-46037D01*
X57996Y-46025D01*
X58114Y-45976D01*
X58150Y-45907D01*
X58150Y-46139D01*
X57974Y-46066D01*
X57776Y-46066D01*
X57593Y-46141D01*
X57453Y-46281D01*
X57377Y-46463D01*
X57377Y-46661D01*
X57452Y-46844D01*
X57592Y-46984D01*
X57774Y-47060D01*
X57972Y-47060D01*
X58155Y-46985D01*
X58295Y-46845D01*
X58371Y-46663D01*
X58371Y-49615D01*
X58348Y-49558D01*
X58348Y-48777D01*
X58336Y-48591D01*
X58287Y-48473D01*
X58218Y-48437D01*
X58150Y-48505D01*
X58150Y-48369D01*
X58114Y-48300D01*
X57938Y-48239D01*
X57752Y-48251D01*
X57634Y-48300D01*
X57598Y-48369D01*
X57874Y-48645D01*
X58150Y-48369D01*
X58150Y-48505D01*
X57942Y-48713D01*
X58218Y-48989D01*
X58287Y-48953D01*
X58348Y-48777D01*
X58348Y-49558D01*
X58296Y-49432D01*
X58156Y-49292D01*
X58150Y-49289D01*
X58150Y-49057D01*
X57874Y-48781D01*
X57806Y-48849D01*
X57806Y-48713D01*
X57530Y-48437D01*
X57461Y-48473D01*
X57400Y-48649D01*
X57412Y-48835D01*
X57461Y-48953D01*
X57530Y-48989D01*
X57806Y-48713D01*
X57806Y-48849D01*
X57598Y-49057D01*
X57634Y-49126D01*
X57810Y-49187D01*
X57996Y-49175D01*
X58114Y-49126D01*
X58150Y-49057D01*
X58150Y-49289D01*
X57974Y-49216D01*
X57776Y-49216D01*
X57593Y-49291D01*
X57453Y-49431D01*
X57377Y-49613D01*
X57377Y-49811D01*
X57452Y-49994D01*
X57592Y-50134D01*
X57774Y-50210D01*
X57972Y-50210D01*
X58155Y-50135D01*
X58295Y-49995D01*
X58371Y-49813D01*
X58371Y-56878D01*
X58092Y-56764D01*
X57651Y-56765D01*
X57248Y-56931D01*
X57135Y-57067D01*
X57874Y-57806D01*
X58613Y-57067D01*
X58613Y-57203D01*
X57977Y-57839D01*
X57942Y-57874D01*
X57874Y-57942D01*
X57839Y-57977D01*
X57806Y-58010D01*
X57806Y-57874D01*
X57067Y-57135D01*
X56931Y-57248D01*
X56764Y-57656D01*
X56765Y-58097D01*
X56931Y-58500D01*
X57067Y-58613D01*
X57806Y-57874D01*
X57806Y-58010D01*
X57135Y-58681D01*
X57243Y-58812D01*
X56662Y-58812D01*
X56662Y-55694D01*
X56662Y-55393D01*
X56662Y-51694D01*
X56662Y-51393D01*
X56547Y-51115D01*
X56334Y-50902D01*
X56056Y-50786D01*
X55755Y-50786D01*
X55477Y-50901D01*
X55264Y-51114D01*
X55148Y-51392D01*
X55148Y-46837D01*
X55148Y-46668D01*
X55084Y-46512D01*
X54978Y-46407D01*
X55083Y-46303D01*
X55148Y-46148D01*
X55148Y-45979D01*
X55084Y-45823D01*
X54964Y-45704D01*
X54809Y-45639D01*
X54640Y-45639D01*
X54484Y-45703D01*
X54365Y-45823D01*
X54355Y-45846D01*
X53519Y-45846D01*
X53510Y-45823D01*
X53390Y-45704D01*
X53235Y-45639D01*
X53066Y-45639D01*
X52910Y-45703D01*
X52791Y-45823D01*
X52726Y-45978D01*
X52726Y-46147D01*
X52790Y-46303D01*
X52895Y-46407D01*
X52791Y-46512D01*
X52726Y-46667D01*
X52726Y-46836D01*
X52790Y-46992D01*
X52910Y-47111D01*
X53065Y-47176D01*
X53234Y-47176D01*
X53390Y-47112D01*
X53509Y-46992D01*
X53518Y-46969D01*
X54354Y-46969D01*
X54364Y-46992D01*
X54484Y-47111D01*
X54639Y-47176D01*
X54808Y-47176D01*
X54964Y-47112D01*
X55083Y-46992D01*
X55148Y-46837D01*
X55148Y-51392D01*
X55148Y-51693D01*
X55263Y-51971D01*
X55476Y-52184D01*
X55754Y-52300D01*
X56055Y-52300D01*
X56333Y-52185D01*
X56546Y-51972D01*
X56662Y-51694D01*
X56662Y-55393D01*
X56547Y-55115D01*
X56334Y-54902D01*
X56056Y-54786D01*
X55755Y-54786D01*
X55477Y-54901D01*
X55264Y-55114D01*
X55148Y-55392D01*
X55148Y-55693D01*
X55263Y-55971D01*
X55476Y-56184D01*
X55754Y-56300D01*
X56055Y-56300D01*
X56333Y-56185D01*
X56546Y-55972D01*
X56662Y-55694D01*
X56662Y-58812D01*
X54427Y-58812D01*
X54427Y-53648D01*
X54427Y-53440D01*
X54401Y-53376D01*
X54401Y-52613D01*
X54389Y-52418D01*
X54336Y-52288D01*
X54266Y-52250D01*
X54198Y-52318D01*
X54198Y-52182D01*
X54160Y-52112D01*
X53975Y-52047D01*
X53780Y-52059D01*
X53650Y-52112D01*
X53612Y-52182D01*
X53905Y-52475D01*
X54198Y-52182D01*
X54198Y-52318D01*
X53973Y-52543D01*
X54266Y-52836D01*
X54336Y-52798D01*
X54401Y-52613D01*
X54401Y-53376D01*
X54348Y-53248D01*
X54201Y-53101D01*
X54025Y-53027D01*
X54030Y-53027D01*
X54160Y-52974D01*
X54198Y-52904D01*
X53905Y-52611D01*
X53837Y-52679D01*
X53837Y-52543D01*
X53544Y-52250D01*
X53474Y-52288D01*
X53409Y-52473D01*
X53421Y-52668D01*
X53474Y-52798D01*
X53544Y-52836D01*
X53837Y-52543D01*
X53837Y-52679D01*
X53612Y-52904D01*
X53650Y-52974D01*
X53793Y-53024D01*
X53610Y-53100D01*
X53463Y-53247D01*
X53383Y-53438D01*
X53383Y-53646D01*
X53462Y-53838D01*
X53609Y-53985D01*
X53800Y-54065D01*
X54008Y-54065D01*
X54200Y-53986D01*
X54347Y-53839D01*
X54427Y-53648D01*
X54427Y-58812D01*
X53377Y-58812D01*
X53377Y-51266D01*
X53377Y-51097D01*
X53313Y-50941D01*
X53193Y-50822D01*
X53038Y-50757D01*
X52869Y-50757D01*
X52845Y-50766D01*
X52481Y-50403D01*
X52491Y-50380D01*
X52491Y-50211D01*
X52427Y-50055D01*
X52307Y-49936D01*
X52152Y-49871D01*
X51983Y-49871D01*
X51827Y-49935D01*
X51708Y-50055D01*
X51643Y-50210D01*
X51643Y-50379D01*
X51707Y-50535D01*
X51827Y-50654D01*
X51982Y-50719D01*
X52151Y-50719D01*
X52174Y-50709D01*
X52538Y-51073D01*
X52529Y-51096D01*
X52529Y-51265D01*
X52593Y-51421D01*
X52713Y-51540D01*
X52868Y-51605D01*
X53037Y-51605D01*
X53193Y-51541D01*
X53312Y-51421D01*
X53377Y-51266D01*
X53377Y-58812D01*
X48363Y-58812D01*
X48429Y-58785D01*
X48548Y-58665D01*
X48613Y-58510D01*
X48613Y-58341D01*
X48603Y-58317D01*
X48734Y-58186D01*
X48813Y-58219D01*
X48982Y-58219D01*
X49138Y-58155D01*
X49257Y-58035D01*
X49322Y-57880D01*
X49322Y-57711D01*
X49258Y-57555D01*
X49138Y-57436D01*
X49085Y-57413D01*
X49085Y-52132D01*
X49085Y-51963D01*
X49021Y-51807D01*
X48901Y-51688D01*
X48746Y-51623D01*
X48577Y-51623D01*
X48421Y-51687D01*
X48302Y-51807D01*
X48237Y-51962D01*
X48237Y-51988D01*
X47963Y-51988D01*
X47963Y-45656D01*
X47963Y-45487D01*
X47899Y-45331D01*
X47779Y-45212D01*
X47624Y-45147D01*
X47455Y-45147D01*
X47299Y-45211D01*
X47180Y-45331D01*
X47170Y-45354D01*
X46629Y-45354D01*
X46620Y-45331D01*
X46500Y-45212D01*
X46345Y-45147D01*
X46176Y-45147D01*
X46020Y-45211D01*
X45901Y-45331D01*
X45836Y-45486D01*
X45836Y-45655D01*
X45900Y-45811D01*
X46020Y-45930D01*
X46175Y-45995D01*
X46344Y-45995D01*
X46500Y-45931D01*
X46619Y-45811D01*
X46628Y-45788D01*
X47169Y-45788D01*
X47179Y-45811D01*
X47299Y-45930D01*
X47454Y-45995D01*
X47623Y-45995D01*
X47779Y-45931D01*
X47898Y-45811D01*
X47963Y-45656D01*
X47963Y-51988D01*
X47298Y-51988D01*
X47289Y-51965D01*
X47169Y-51846D01*
X47014Y-51781D01*
X46845Y-51781D01*
X46689Y-51845D01*
X46570Y-51965D01*
X46505Y-52120D01*
X46505Y-52289D01*
X46569Y-52445D01*
X46689Y-52564D01*
X46844Y-52629D01*
X47013Y-52629D01*
X47169Y-52565D01*
X47288Y-52445D01*
X47297Y-52422D01*
X48459Y-52422D01*
X48576Y-52471D01*
X48745Y-52471D01*
X48901Y-52407D01*
X49020Y-52287D01*
X49085Y-52132D01*
X49085Y-57413D01*
X48983Y-57371D01*
X48814Y-57371D01*
X48658Y-57435D01*
X48539Y-57555D01*
X48474Y-57710D01*
X48474Y-57833D01*
X48296Y-58010D01*
X48274Y-58001D01*
X48105Y-58001D01*
X47949Y-58065D01*
X47830Y-58185D01*
X47765Y-58340D01*
X47765Y-58509D01*
X47829Y-58665D01*
X47949Y-58784D01*
X48015Y-58812D01*
X47137Y-58812D01*
X47137Y-57967D01*
X47137Y-57781D01*
X47066Y-57609D01*
X46934Y-57477D01*
X46762Y-57406D01*
X46576Y-57406D01*
X46404Y-57477D01*
X46272Y-57609D01*
X46201Y-57781D01*
X46201Y-57967D01*
X46272Y-58139D01*
X46404Y-58271D01*
X46576Y-58342D01*
X46762Y-58342D01*
X46934Y-58271D01*
X47066Y-58139D01*
X47137Y-57967D01*
X47137Y-58812D01*
X46137Y-58812D01*
X46137Y-57967D01*
X46137Y-57781D01*
X46066Y-57609D01*
X45934Y-57477D01*
X45762Y-57406D01*
X45576Y-57406D01*
X45404Y-57477D01*
X45272Y-57609D01*
X45201Y-57781D01*
X45201Y-57967D01*
X45272Y-58139D01*
X45404Y-58271D01*
X45576Y-58342D01*
X45762Y-58342D01*
X45934Y-58271D01*
X46066Y-58139D01*
X46137Y-57967D01*
X46137Y-58812D01*
X45137Y-58812D01*
X45137Y-58208D01*
X45137Y-58141D01*
X45137Y-57541D01*
X45112Y-57479D01*
X45064Y-57432D01*
X45042Y-57422D01*
X45042Y-53648D01*
X45042Y-53440D01*
X44963Y-53248D01*
X44816Y-53101D01*
X44625Y-53021D01*
X44417Y-53021D01*
X44322Y-53060D01*
X44322Y-44179D01*
X44322Y-44010D01*
X44258Y-43854D01*
X44138Y-43735D01*
X43983Y-43670D01*
X43814Y-43670D01*
X43800Y-43675D01*
X43525Y-43399D01*
X43470Y-43264D01*
X43350Y-43145D01*
X43195Y-43080D01*
X43026Y-43080D01*
X42870Y-43144D01*
X42751Y-43264D01*
X42686Y-43419D01*
X42686Y-43588D01*
X42750Y-43744D01*
X42870Y-43863D01*
X43025Y-43928D01*
X43194Y-43928D01*
X43347Y-43865D01*
X43479Y-43996D01*
X43474Y-44009D01*
X43474Y-44178D01*
X43538Y-44334D01*
X43658Y-44453D01*
X43813Y-44518D01*
X43982Y-44518D01*
X44138Y-44454D01*
X44257Y-44334D01*
X44322Y-44179D01*
X44322Y-53060D01*
X44225Y-53100D01*
X44078Y-53247D01*
X43998Y-53438D01*
X43998Y-53646D01*
X44077Y-53838D01*
X44224Y-53985D01*
X44399Y-54058D01*
X44395Y-54059D01*
X44265Y-54112D01*
X44227Y-54182D01*
X44520Y-54475D01*
X44813Y-54182D01*
X44775Y-54112D01*
X44631Y-54061D01*
X44815Y-53986D01*
X44962Y-53839D01*
X45042Y-53648D01*
X45042Y-57422D01*
X45016Y-57411D01*
X45016Y-54613D01*
X45004Y-54418D01*
X44951Y-54288D01*
X44881Y-54250D01*
X44588Y-54543D01*
X44881Y-54836D01*
X44951Y-54798D01*
X45016Y-54613D01*
X45016Y-57411D01*
X45003Y-57406D01*
X44936Y-57406D01*
X44813Y-57406D01*
X44813Y-54904D01*
X44520Y-54611D01*
X44452Y-54679D01*
X44452Y-54543D01*
X44159Y-54250D01*
X44089Y-54288D01*
X44024Y-54473D01*
X44036Y-54668D01*
X44089Y-54798D01*
X44159Y-54836D01*
X44452Y-54543D01*
X44452Y-54679D01*
X44227Y-54904D01*
X44265Y-54974D01*
X44450Y-55039D01*
X44645Y-55027D01*
X44775Y-54974D01*
X44813Y-54904D01*
X44813Y-57406D01*
X44336Y-57406D01*
X44274Y-57431D01*
X44227Y-57479D01*
X44201Y-57540D01*
X44201Y-57607D01*
X44201Y-58207D01*
X44226Y-58269D01*
X44274Y-58316D01*
X44335Y-58342D01*
X44402Y-58342D01*
X45002Y-58342D01*
X45064Y-58317D01*
X45111Y-58269D01*
X45137Y-58208D01*
X45137Y-58812D01*
X43277Y-58812D01*
X43277Y-55694D01*
X43277Y-55393D01*
X43277Y-51694D01*
X43277Y-51393D01*
X43162Y-51115D01*
X42949Y-50902D01*
X42671Y-50786D01*
X42370Y-50786D01*
X42092Y-50901D01*
X41879Y-51114D01*
X41763Y-51392D01*
X41763Y-51693D01*
X41878Y-51971D01*
X42091Y-52184D01*
X42369Y-52300D01*
X42670Y-52300D01*
X42948Y-52185D01*
X43161Y-51972D01*
X43277Y-51694D01*
X43277Y-55393D01*
X43162Y-55115D01*
X42949Y-54902D01*
X42671Y-54786D01*
X42370Y-54786D01*
X42092Y-54901D01*
X41879Y-55114D01*
X41763Y-55392D01*
X41763Y-55693D01*
X41878Y-55971D01*
X42091Y-56184D01*
X42369Y-56300D01*
X42670Y-56300D01*
X42948Y-56185D01*
X43161Y-55972D01*
X43277Y-55694D01*
X43277Y-58812D01*
X41661Y-58812D01*
X41661Y-58092D01*
X41661Y-40769D01*
X41660Y-40328D01*
X41494Y-39925D01*
X41358Y-39812D01*
X40619Y-40551D01*
X41358Y-41290D01*
X41494Y-41177D01*
X41661Y-40769D01*
X41661Y-58092D01*
X41660Y-57651D01*
X41613Y-57536D01*
X41613Y-47959D01*
X41613Y-47892D01*
X41613Y-46892D01*
X41588Y-46830D01*
X41540Y-46783D01*
X41486Y-46759D01*
X41486Y-45029D01*
X41486Y-44892D01*
X41486Y-43297D01*
X41486Y-43160D01*
X41434Y-43034D01*
X41337Y-42937D01*
X41290Y-42917D01*
X41290Y-41358D01*
X40551Y-40619D01*
X39812Y-41358D01*
X39925Y-41494D01*
X40333Y-41661D01*
X40774Y-41660D01*
X41177Y-41494D01*
X41290Y-41358D01*
X41290Y-42917D01*
X41211Y-42884D01*
X41074Y-42884D01*
X40948Y-42936D01*
X40851Y-43033D01*
X40798Y-43159D01*
X40798Y-43296D01*
X40850Y-43422D01*
X40947Y-43519D01*
X41073Y-43572D01*
X41210Y-43572D01*
X41336Y-43520D01*
X41433Y-43423D01*
X41486Y-43297D01*
X41486Y-44892D01*
X41434Y-44766D01*
X41337Y-44669D01*
X41211Y-44616D01*
X41074Y-44616D01*
X40948Y-44668D01*
X40851Y-44765D01*
X40798Y-44891D01*
X40798Y-45028D01*
X40850Y-45154D01*
X40947Y-45251D01*
X41073Y-45304D01*
X41210Y-45304D01*
X41336Y-45252D01*
X41433Y-45155D01*
X41486Y-45029D01*
X41486Y-46759D01*
X41479Y-46757D01*
X41412Y-46757D01*
X40412Y-46757D01*
X40350Y-46782D01*
X40303Y-46830D01*
X40277Y-46891D01*
X40277Y-46958D01*
X40277Y-47958D01*
X40302Y-48020D01*
X40350Y-48067D01*
X40411Y-48093D01*
X40478Y-48093D01*
X41478Y-48093D01*
X41540Y-48068D01*
X41587Y-48020D01*
X41613Y-47959D01*
X41613Y-57536D01*
X41584Y-57466D01*
X41584Y-49530D01*
X41576Y-49277D01*
X41496Y-49083D01*
X41410Y-49028D01*
X41342Y-49096D01*
X41342Y-48960D01*
X41287Y-48874D01*
X41050Y-48786D01*
X40797Y-48794D01*
X40603Y-48874D01*
X40548Y-48960D01*
X40945Y-49357D01*
X41342Y-48960D01*
X41342Y-49096D01*
X41013Y-49425D01*
X41410Y-49822D01*
X41496Y-49767D01*
X41584Y-49530D01*
X41584Y-57466D01*
X41494Y-57248D01*
X41358Y-57135D01*
X41342Y-57151D01*
X41342Y-49890D01*
X40945Y-49493D01*
X40877Y-49561D01*
X40877Y-49425D01*
X40480Y-49028D01*
X40394Y-49083D01*
X40306Y-49320D01*
X40314Y-49573D01*
X40394Y-49767D01*
X40480Y-49822D01*
X40877Y-49425D01*
X40877Y-49561D01*
X40548Y-49890D01*
X40603Y-49976D01*
X40840Y-50064D01*
X41093Y-50056D01*
X41287Y-49976D01*
X41342Y-49890D01*
X41342Y-57151D01*
X41290Y-57203D01*
X41290Y-57067D01*
X41177Y-56931D01*
X40769Y-56764D01*
X40328Y-56765D01*
X39925Y-56931D01*
X39812Y-57067D01*
X40551Y-57806D01*
X41290Y-57067D01*
X41290Y-57203D01*
X40619Y-57874D01*
X41358Y-58613D01*
X41494Y-58500D01*
X41661Y-58092D01*
X41661Y-58812D01*
X41181Y-58812D01*
X41290Y-58681D01*
X40586Y-57977D01*
X40551Y-57942D01*
X40483Y-57874D01*
X40448Y-57839D01*
X39744Y-57135D01*
X39613Y-57243D01*
X39613Y-41181D01*
X39744Y-41290D01*
X40448Y-40586D01*
X40483Y-40551D01*
X40551Y-40483D01*
X40586Y-40448D01*
X41290Y-39744D01*
X41181Y-39613D01*
X44254Y-39613D01*
X44156Y-39711D01*
X44089Y-39873D01*
X44089Y-40049D01*
X44156Y-40211D01*
X44281Y-40336D01*
X44443Y-40403D01*
X44619Y-40403D01*
X44781Y-40336D01*
X44906Y-40211D01*
X44973Y-40049D01*
X44973Y-39873D01*
X44906Y-39711D01*
X44808Y-39613D01*
X45254Y-39613D01*
X45156Y-39711D01*
X45089Y-39873D01*
X45089Y-40049D01*
X45156Y-40211D01*
X45281Y-40336D01*
X45443Y-40403D01*
X45619Y-40403D01*
X45781Y-40336D01*
X45906Y-40211D01*
X45973Y-40049D01*
X45973Y-39873D01*
X45906Y-39711D01*
X45808Y-39613D01*
X46254Y-39613D01*
X46156Y-39711D01*
X46089Y-39873D01*
X46089Y-40049D01*
X46156Y-40211D01*
X46281Y-40336D01*
X46443Y-40403D01*
X46619Y-40403D01*
X46781Y-40336D01*
X46906Y-40211D01*
X46973Y-40049D01*
X46973Y-39873D01*
X46906Y-39711D01*
X46808Y-39613D01*
X47254Y-39613D01*
X47156Y-39711D01*
X47089Y-39873D01*
X47089Y-40049D01*
X47156Y-40211D01*
X47281Y-40336D01*
X47443Y-40403D01*
X47619Y-40403D01*
X47781Y-40336D01*
X47906Y-40211D01*
X47973Y-40049D01*
X47973Y-39873D01*
X47906Y-39711D01*
X47808Y-39613D01*
X48254Y-39613D01*
X48156Y-39711D01*
X48089Y-39873D01*
X48089Y-40049D01*
X48156Y-40211D01*
X48281Y-40336D01*
X48340Y-40360D01*
X48378Y-40416D01*
X49093Y-41132D01*
X49084Y-41155D01*
X49084Y-41324D01*
X49148Y-41480D01*
X49268Y-41599D01*
X49423Y-41664D01*
X49592Y-41664D01*
X49748Y-41600D01*
X49867Y-41480D01*
X49932Y-41325D01*
X49932Y-41183D01*
X50569Y-41821D01*
X50560Y-41844D01*
X50560Y-42013D01*
X50624Y-42169D01*
X50744Y-42288D01*
X50899Y-42353D01*
X51068Y-42353D01*
X51224Y-42289D01*
X51343Y-42169D01*
X51408Y-42014D01*
X51408Y-41968D01*
X51433Y-41993D01*
X51588Y-42058D01*
X51757Y-42058D01*
X51913Y-41994D01*
X52032Y-41874D01*
X52097Y-41719D01*
X52097Y-41673D01*
X52122Y-41698D01*
X52145Y-41707D01*
X52145Y-41937D01*
X51681Y-42401D01*
X48219Y-42401D01*
X46708Y-40890D01*
X46638Y-40843D01*
X46555Y-40826D01*
X46530Y-40826D01*
X46521Y-40803D01*
X46401Y-40684D01*
X46246Y-40619D01*
X46077Y-40619D01*
X45921Y-40683D01*
X45802Y-40803D01*
X45737Y-40958D01*
X45737Y-41127D01*
X45801Y-41283D01*
X45921Y-41402D01*
X46076Y-41467D01*
X46245Y-41467D01*
X46401Y-41403D01*
X46504Y-41298D01*
X47976Y-42771D01*
X47977Y-42771D01*
X48047Y-42818D01*
X48130Y-42835D01*
X51771Y-42835D01*
X51771Y-42834D01*
X51854Y-42818D01*
X51924Y-42771D01*
X52515Y-42181D01*
X52515Y-42180D01*
X52562Y-42110D01*
X52578Y-42028D01*
X52579Y-42027D01*
X52579Y-41708D01*
X52602Y-41699D01*
X52721Y-41579D01*
X52786Y-41424D01*
X52786Y-41255D01*
X52722Y-41099D01*
X52602Y-40980D01*
X52447Y-40915D01*
X52278Y-40915D01*
X52122Y-40979D01*
X52003Y-41099D01*
X51954Y-41215D01*
X51954Y-40046D01*
X51917Y-40009D01*
X51579Y-40009D01*
X51579Y-40347D01*
X51616Y-40384D01*
X51835Y-40383D01*
X51889Y-40361D01*
X51930Y-40319D01*
X51953Y-40265D01*
X51953Y-40207D01*
X51954Y-40046D01*
X51954Y-41215D01*
X51938Y-41254D01*
X51938Y-41299D01*
X51913Y-41275D01*
X51758Y-41210D01*
X51589Y-41210D01*
X51564Y-41219D01*
X51483Y-41138D01*
X51483Y-40347D01*
X51483Y-40009D01*
X51145Y-40009D01*
X51108Y-40046D01*
X51109Y-40207D01*
X51109Y-40265D01*
X51132Y-40319D01*
X51173Y-40361D01*
X51227Y-40383D01*
X51446Y-40384D01*
X51483Y-40347D01*
X51483Y-41138D01*
X50748Y-40403D01*
X50748Y-40349D01*
X50781Y-40336D01*
X50906Y-40211D01*
X50973Y-40049D01*
X50973Y-39873D01*
X50906Y-39711D01*
X50808Y-39613D01*
X51127Y-39613D01*
X51109Y-39657D01*
X51109Y-39715D01*
X51108Y-39876D01*
X51145Y-39913D01*
X51433Y-39913D01*
X51483Y-39913D01*
X51579Y-39913D01*
X51629Y-39913D01*
X51917Y-39913D01*
X51954Y-39876D01*
X51953Y-39715D01*
X51953Y-39657D01*
X51934Y-39613D01*
X57243Y-39613D01*
X57135Y-39744D01*
X57839Y-40448D01*
X57874Y-40483D01*
X57942Y-40551D01*
X57977Y-40586D01*
X58681Y-41290D01*
X58812Y-41181D01*
X58812Y-57243D01*
X58812Y-57243D01*
G37*
G54D25*
X58812Y-57243D02*
X58681Y-57135D01*
X58613Y-57203D01*
X58613Y-57067D01*
X58613Y-41358D01*
X57874Y-40619D01*
X57806Y-40687D01*
X57806Y-40551D01*
X57067Y-39812D01*
X56931Y-39925D01*
X56764Y-40333D01*
X56765Y-40774D01*
X56931Y-41177D01*
X57067Y-41290D01*
X57806Y-40551D01*
X57806Y-40687D01*
X57135Y-41358D01*
X57248Y-41494D01*
X57656Y-41661D01*
X58097Y-41660D01*
X58500Y-41494D01*
X58613Y-41358D01*
X58613Y-57067D01*
X58529Y-56965D01*
X58529Y-43623D01*
X58529Y-42623D01*
X58517Y-42458D01*
X58478Y-42363D01*
X58415Y-42334D01*
X58347Y-42402D01*
X58347Y-42266D01*
X58318Y-42203D01*
X58162Y-42152D01*
X57997Y-42164D01*
X57902Y-42203D01*
X57873Y-42266D01*
X58110Y-42503D01*
X58347Y-42266D01*
X58347Y-42402D01*
X58178Y-42571D01*
X58415Y-42808D01*
X58478Y-42779D01*
X58529Y-42623D01*
X58529Y-43623D01*
X58517Y-43458D01*
X58478Y-43363D01*
X58415Y-43334D01*
X58347Y-43402D01*
X58347Y-43266D01*
X58347Y-42876D01*
X58110Y-42639D01*
X58042Y-42707D01*
X58042Y-42571D01*
X57805Y-42334D01*
X57742Y-42363D01*
X57691Y-42519D01*
X57703Y-42684D01*
X57742Y-42779D01*
X57805Y-42808D01*
X58042Y-42571D01*
X58042Y-42707D01*
X57873Y-42876D01*
X57902Y-42939D01*
X58058Y-42990D01*
X58223Y-42978D01*
X58318Y-42939D01*
X58347Y-42876D01*
X58347Y-43266D01*
X58318Y-43203D01*
X58162Y-43152D01*
X57997Y-43164D01*
X57902Y-43203D01*
X57873Y-43266D01*
X58110Y-43503D01*
X58347Y-43266D01*
X58347Y-43402D01*
X58178Y-43571D01*
X58415Y-43808D01*
X58478Y-43779D01*
X58529Y-43623D01*
X58529Y-56965D01*
X58500Y-56931D01*
X58371Y-56878D01*
X58371Y-49813D01*
X58371Y-49615D01*
X58371Y-46663D01*
X58371Y-46465D01*
X58348Y-46408D01*
X58348Y-45627D01*
X58347Y-45611D01*
X58347Y-43876D01*
X58110Y-43639D01*
X58042Y-43707D01*
X58042Y-43571D01*
X57805Y-43334D01*
X57742Y-43363D01*
X57691Y-43519D01*
X57703Y-43684D01*
X57742Y-43779D01*
X57805Y-43808D01*
X58042Y-43571D01*
X58042Y-43707D01*
X57873Y-43876D01*
X57902Y-43939D01*
X58058Y-43990D01*
X58223Y-43978D01*
X58318Y-43939D01*
X58347Y-43876D01*
X58347Y-45611D01*
X58336Y-45441D01*
X58287Y-45323D01*
X58218Y-45287D01*
X58150Y-45355D01*
X58150Y-45219D01*
X58114Y-45150D01*
X57938Y-45089D01*
X57752Y-45101D01*
X57634Y-45150D01*
X57598Y-45219D01*
X57874Y-45495D01*
X58150Y-45219D01*
X58150Y-45355D01*
X57942Y-45563D01*
X58218Y-45839D01*
X58287Y-45803D01*
X58348Y-45627D01*
X58348Y-46408D01*
X58296Y-46282D01*
X58156Y-46142D01*
X58150Y-46139D01*
X58150Y-45907D01*
X57874Y-45631D01*
X57806Y-45699D01*
X57806Y-45563D01*
X57530Y-45287D01*
X57461Y-45323D01*
X57400Y-45499D01*
X57412Y-45685D01*
X57461Y-45803D01*
X57530Y-45839D01*
X57806Y-45563D01*
X57806Y-45699D01*
X57598Y-45907D01*
X57634Y-45976D01*
X57810Y-46037D01*
X57996Y-46025D01*
X58114Y-45976D01*
X58150Y-45907D01*
X58150Y-46139D01*
X57974Y-46066D01*
X57776Y-46066D01*
X57593Y-46141D01*
X57453Y-46281D01*
X57377Y-46463D01*
X57377Y-46661D01*
X57452Y-46844D01*
X57592Y-46984D01*
X57774Y-47060D01*
X57972Y-47060D01*
X58155Y-46985D01*
X58295Y-46845D01*
X58371Y-46663D01*
X58371Y-49615D01*
X58348Y-49558D01*
X58348Y-48777D01*
X58336Y-48591D01*
X58287Y-48473D01*
X58218Y-48437D01*
X58150Y-48505D01*
X58150Y-48369D01*
X58114Y-48300D01*
X57938Y-48239D01*
X57752Y-48251D01*
X57634Y-48300D01*
X57598Y-48369D01*
X57874Y-48645D01*
X58150Y-48369D01*
X58150Y-48505D01*
X57942Y-48713D01*
X58218Y-48989D01*
X58287Y-48953D01*
X58348Y-48777D01*
X58348Y-49558D01*
X58296Y-49432D01*
X58156Y-49292D01*
X58150Y-49289D01*
X58150Y-49057D01*
X57874Y-48781D01*
X57806Y-48849D01*
X57806Y-48713D01*
X57530Y-48437D01*
X57461Y-48473D01*
X57400Y-48649D01*
X57412Y-48835D01*
X57461Y-48953D01*
X57530Y-48989D01*
X57806Y-48713D01*
X57806Y-48849D01*
X57598Y-49057D01*
X57634Y-49126D01*
X57810Y-49187D01*
X57996Y-49175D01*
X58114Y-49126D01*
X58150Y-49057D01*
X58150Y-49289D01*
X57974Y-49216D01*
X57776Y-49216D01*
X57593Y-49291D01*
X57453Y-49431D01*
X57377Y-49613D01*
X57377Y-49811D01*
X57452Y-49994D01*
X57592Y-50134D01*
X57774Y-50210D01*
X57972Y-50210D01*
X58155Y-50135D01*
X58295Y-49995D01*
X58371Y-49813D01*
X58371Y-56878D01*
X58092Y-56764D01*
X57651Y-56765D01*
X57248Y-56931D01*
X57135Y-57067D01*
X57874Y-57806D01*
X58613Y-57067D01*
X58613Y-57203D01*
X57977Y-57839D01*
X57942Y-57874D01*
X57874Y-57942D01*
X57839Y-57977D01*
X57806Y-58010D01*
X57806Y-57874D01*
X57067Y-57135D01*
X56931Y-57248D01*
X56764Y-57656D01*
X56765Y-58097D01*
X56931Y-58500D01*
X57067Y-58613D01*
X57806Y-57874D01*
X57806Y-58010D01*
X57135Y-58681D01*
X57243Y-58812D01*
X56662Y-58812D01*
X56662Y-55694D01*
X56662Y-55393D01*
X56662Y-51694D01*
X56662Y-51393D01*
X56547Y-51115D01*
X56334Y-50902D01*
X56056Y-50786D01*
X55755Y-50786D01*
X55477Y-50901D01*
X55264Y-51114D01*
X55148Y-51392D01*
X55148Y-46837D01*
X55148Y-46668D01*
X55084Y-46512D01*
X54978Y-46407D01*
X55083Y-46303D01*
X55148Y-46148D01*
X55148Y-45979D01*
X55084Y-45823D01*
X54964Y-45704D01*
X54809Y-45639D01*
X54640Y-45639D01*
X54484Y-45703D01*
X54365Y-45823D01*
X54355Y-45846D01*
X53519Y-45846D01*
X53510Y-45823D01*
X53390Y-45704D01*
X53235Y-45639D01*
X53066Y-45639D01*
X52910Y-45703D01*
X52791Y-45823D01*
X52726Y-45978D01*
X52726Y-46147D01*
X52790Y-46303D01*
X52895Y-46407D01*
X52791Y-46512D01*
X52726Y-46667D01*
X52726Y-46836D01*
X52790Y-46992D01*
X52910Y-47111D01*
X53065Y-47176D01*
X53234Y-47176D01*
X53390Y-47112D01*
X53509Y-46992D01*
X53518Y-46969D01*
X54354Y-46969D01*
X54364Y-46992D01*
X54484Y-47111D01*
X54639Y-47176D01*
X54808Y-47176D01*
X54964Y-47112D01*
X55083Y-46992D01*
X55148Y-46837D01*
X55148Y-51392D01*
X55148Y-51693D01*
X55263Y-51971D01*
X55476Y-52184D01*
X55754Y-52300D01*
X56055Y-52300D01*
X56333Y-52185D01*
X56546Y-51972D01*
X56662Y-51694D01*
X56662Y-55393D01*
X56547Y-55115D01*
X56334Y-54902D01*
X56056Y-54786D01*
X55755Y-54786D01*
X55477Y-54901D01*
X55264Y-55114D01*
X55148Y-55392D01*
X55148Y-55693D01*
X55263Y-55971D01*
X55476Y-56184D01*
X55754Y-56300D01*
X56055Y-56300D01*
X56333Y-56185D01*
X56546Y-55972D01*
X56662Y-55694D01*
X56662Y-58812D01*
X54427Y-58812D01*
X54427Y-53648D01*
X54427Y-53440D01*
X54401Y-53376D01*
X54401Y-52613D01*
X54389Y-52418D01*
X54336Y-52288D01*
X54266Y-52250D01*
X54198Y-52318D01*
X54198Y-52182D01*
X54160Y-52112D01*
X53975Y-52047D01*
X53780Y-52059D01*
X53650Y-52112D01*
X53612Y-52182D01*
X53905Y-52475D01*
X54198Y-52182D01*
X54198Y-52318D01*
X53973Y-52543D01*
X54266Y-52836D01*
X54336Y-52798D01*
X54401Y-52613D01*
X54401Y-53376D01*
X54348Y-53248D01*
X54201Y-53101D01*
X54025Y-53027D01*
X54030Y-53027D01*
X54160Y-52974D01*
X54198Y-52904D01*
X53905Y-52611D01*
X53837Y-52679D01*
X53837Y-52543D01*
X53544Y-52250D01*
X53474Y-52288D01*
X53409Y-52473D01*
X53421Y-52668D01*
X53474Y-52798D01*
X53544Y-52836D01*
X53837Y-52543D01*
X53837Y-52679D01*
X53612Y-52904D01*
X53650Y-52974D01*
X53793Y-53024D01*
X53610Y-53100D01*
X53463Y-53247D01*
X53383Y-53438D01*
X53383Y-53646D01*
X53462Y-53838D01*
X53609Y-53985D01*
X53800Y-54065D01*
X54008Y-54065D01*
X54200Y-53986D01*
X54347Y-53839D01*
X54427Y-53648D01*
X54427Y-58812D01*
X53377Y-58812D01*
X53377Y-51266D01*
X53377Y-51097D01*
X53313Y-50941D01*
X53193Y-50822D01*
X53038Y-50757D01*
X52869Y-50757D01*
X52845Y-50766D01*
X52481Y-50403D01*
X52491Y-50380D01*
X52491Y-50211D01*
X52427Y-50055D01*
X52307Y-49936D01*
X52152Y-49871D01*
X51983Y-49871D01*
X51827Y-49935D01*
X51708Y-50055D01*
X51643Y-50210D01*
X51643Y-50379D01*
X51707Y-50535D01*
X51827Y-50654D01*
X51982Y-50719D01*
X52151Y-50719D01*
X52174Y-50709D01*
X52538Y-51073D01*
X52529Y-51096D01*
X52529Y-51265D01*
X52593Y-51421D01*
X52713Y-51540D01*
X52868Y-51605D01*
X53037Y-51605D01*
X53193Y-51541D01*
X53312Y-51421D01*
X53377Y-51266D01*
X53377Y-58812D01*
X48363Y-58812D01*
X48429Y-58785D01*
X48548Y-58665D01*
X48613Y-58510D01*
X48613Y-58341D01*
X48603Y-58317D01*
X48734Y-58186D01*
X48813Y-58219D01*
X48982Y-58219D01*
X49138Y-58155D01*
X49257Y-58035D01*
X49322Y-57880D01*
X49322Y-57711D01*
X49258Y-57555D01*
X49138Y-57436D01*
X49085Y-57413D01*
X49085Y-52132D01*
X49085Y-51963D01*
X49021Y-51807D01*
X48901Y-51688D01*
X48746Y-51623D01*
X48577Y-51623D01*
X48421Y-51687D01*
X48302Y-51807D01*
X48237Y-51962D01*
X48237Y-51988D01*
X47963Y-51988D01*
X47963Y-45656D01*
X47963Y-45487D01*
X47899Y-45331D01*
X47779Y-45212D01*
X47624Y-45147D01*
X47455Y-45147D01*
X47299Y-45211D01*
X47180Y-45331D01*
X47170Y-45354D01*
X46629Y-45354D01*
X46620Y-45331D01*
X46500Y-45212D01*
X46345Y-45147D01*
X46176Y-45147D01*
X46020Y-45211D01*
X45901Y-45331D01*
X45836Y-45486D01*
X45836Y-45655D01*
X45900Y-45811D01*
X46020Y-45930D01*
X46175Y-45995D01*
X46344Y-45995D01*
X46500Y-45931D01*
X46619Y-45811D01*
X46628Y-45788D01*
X47169Y-45788D01*
X47179Y-45811D01*
X47299Y-45930D01*
X47454Y-45995D01*
X47623Y-45995D01*
X47779Y-45931D01*
X47898Y-45811D01*
X47963Y-45656D01*
X47963Y-51988D01*
X47298Y-51988D01*
X47289Y-51965D01*
X47169Y-51846D01*
X47014Y-51781D01*
X46845Y-51781D01*
X46689Y-51845D01*
X46570Y-51965D01*
X46505Y-52120D01*
X46505Y-52289D01*
X46569Y-52445D01*
X46689Y-52564D01*
X46844Y-52629D01*
X47013Y-52629D01*
X47169Y-52565D01*
X47288Y-52445D01*
X47297Y-52422D01*
X48459Y-52422D01*
X48576Y-52471D01*
X48745Y-52471D01*
X48901Y-52407D01*
X49020Y-52287D01*
X49085Y-52132D01*
X49085Y-57413D01*
X48983Y-57371D01*
X48814Y-57371D01*
X48658Y-57435D01*
X48539Y-57555D01*
X48474Y-57710D01*
X48474Y-57833D01*
X48296Y-58010D01*
X48274Y-58001D01*
X48105Y-58001D01*
X47949Y-58065D01*
X47830Y-58185D01*
X47765Y-58340D01*
X47765Y-58509D01*
X47829Y-58665D01*
X47949Y-58784D01*
X48015Y-58812D01*
X47137Y-58812D01*
X47137Y-57967D01*
X47137Y-57781D01*
X47066Y-57609D01*
X46934Y-57477D01*
X46762Y-57406D01*
X46576Y-57406D01*
X46404Y-57477D01*
X46272Y-57609D01*
X46201Y-57781D01*
X46201Y-57967D01*
X46272Y-58139D01*
X46404Y-58271D01*
X46576Y-58342D01*
X46762Y-58342D01*
X46934Y-58271D01*
X47066Y-58139D01*
X47137Y-57967D01*
X47137Y-58812D01*
X46137Y-58812D01*
X46137Y-57967D01*
X46137Y-57781D01*
X46066Y-57609D01*
X45934Y-57477D01*
X45762Y-57406D01*
X45576Y-57406D01*
X45404Y-57477D01*
X45272Y-57609D01*
X45201Y-57781D01*
X45201Y-57967D01*
X45272Y-58139D01*
X45404Y-58271D01*
X45576Y-58342D01*
X45762Y-58342D01*
X45934Y-58271D01*
X46066Y-58139D01*
X46137Y-57967D01*
X46137Y-58812D01*
X45137Y-58812D01*
X45137Y-58208D01*
X45137Y-58141D01*
X45137Y-57541D01*
X45112Y-57479D01*
X45064Y-57432D01*
X45042Y-57422D01*
X45042Y-53648D01*
X45042Y-53440D01*
X44963Y-53248D01*
X44816Y-53101D01*
X44625Y-53021D01*
X44417Y-53021D01*
X44322Y-53060D01*
X44322Y-44179D01*
X44322Y-44010D01*
X44258Y-43854D01*
X44138Y-43735D01*
X43983Y-43670D01*
X43814Y-43670D01*
X43800Y-43675D01*
X43525Y-43399D01*
X43470Y-43264D01*
X43350Y-43145D01*
X43195Y-43080D01*
X43026Y-43080D01*
X42870Y-43144D01*
X42751Y-43264D01*
X42686Y-43419D01*
X42686Y-43588D01*
X42750Y-43744D01*
X42870Y-43863D01*
X43025Y-43928D01*
X43194Y-43928D01*
X43347Y-43865D01*
X43479Y-43996D01*
X43474Y-44009D01*
X43474Y-44178D01*
X43538Y-44334D01*
X43658Y-44453D01*
X43813Y-44518D01*
X43982Y-44518D01*
X44138Y-44454D01*
X44257Y-44334D01*
X44322Y-44179D01*
X44322Y-53060D01*
X44225Y-53100D01*
X44078Y-53247D01*
X43998Y-53438D01*
X43998Y-53646D01*
X44077Y-53838D01*
X44224Y-53985D01*
X44399Y-54058D01*
X44395Y-54059D01*
X44265Y-54112D01*
X44227Y-54182D01*
X44520Y-54475D01*
X44813Y-54182D01*
X44775Y-54112D01*
X44631Y-54061D01*
X44815Y-53986D01*
X44962Y-53839D01*
X45042Y-53648D01*
X45042Y-57422D01*
X45016Y-57411D01*
X45016Y-54613D01*
X45004Y-54418D01*
X44951Y-54288D01*
X44881Y-54250D01*
X44588Y-54543D01*
X44881Y-54836D01*
X44951Y-54798D01*
X45016Y-54613D01*
X45016Y-57411D01*
X45003Y-57406D01*
X44936Y-57406D01*
X44813Y-57406D01*
X44813Y-54904D01*
X44520Y-54611D01*
X44452Y-54679D01*
X44452Y-54543D01*
X44159Y-54250D01*
X44089Y-54288D01*
X44024Y-54473D01*
X44036Y-54668D01*
X44089Y-54798D01*
X44159Y-54836D01*
X44452Y-54543D01*
X44452Y-54679D01*
X44227Y-54904D01*
X44265Y-54974D01*
X44450Y-55039D01*
X44645Y-55027D01*
X44775Y-54974D01*
X44813Y-54904D01*
X44813Y-57406D01*
X44336Y-57406D01*
X44274Y-57431D01*
X44227Y-57479D01*
X44201Y-57540D01*
X44201Y-57607D01*
X44201Y-58207D01*
X44226Y-58269D01*
X44274Y-58316D01*
X44335Y-58342D01*
X44402Y-58342D01*
X45002Y-58342D01*
X45064Y-58317D01*
X45111Y-58269D01*
X45137Y-58208D01*
X45137Y-58812D01*
X43277Y-58812D01*
X43277Y-55694D01*
X43277Y-55393D01*
X43277Y-51694D01*
X43277Y-51393D01*
X43162Y-51115D01*
X42949Y-50902D01*
X42671Y-50786D01*
X42370Y-50786D01*
X42092Y-50901D01*
X41879Y-51114D01*
X41763Y-51392D01*
X41763Y-51693D01*
X41878Y-51971D01*
X42091Y-52184D01*
X42369Y-52300D01*
X42670Y-52300D01*
X42948Y-52185D01*
X43161Y-51972D01*
X43277Y-51694D01*
X43277Y-55393D01*
X43162Y-55115D01*
X42949Y-54902D01*
X42671Y-54786D01*
X42370Y-54786D01*
X42092Y-54901D01*
X41879Y-55114D01*
X41763Y-55392D01*
X41763Y-55693D01*
X41878Y-55971D01*
X42091Y-56184D01*
X42369Y-56300D01*
X42670Y-56300D01*
X42948Y-56185D01*
X43161Y-55972D01*
X43277Y-55694D01*
X43277Y-58812D01*
X41661Y-58812D01*
X41661Y-58092D01*
X41661Y-40769D01*
X41660Y-40328D01*
X41494Y-39925D01*
X41358Y-39812D01*
X40619Y-40551D01*
X41358Y-41290D01*
X41494Y-41177D01*
X41661Y-40769D01*
X41661Y-58092D01*
X41660Y-57651D01*
X41613Y-57536D01*
X41613Y-47959D01*
X41613Y-47892D01*
X41613Y-46892D01*
X41588Y-46830D01*
X41540Y-46783D01*
X41486Y-46759D01*
X41486Y-45029D01*
X41486Y-44892D01*
X41486Y-43297D01*
X41486Y-43160D01*
X41434Y-43034D01*
X41337Y-42937D01*
X41290Y-42917D01*
X41290Y-41358D01*
X40551Y-40619D01*
X39812Y-41358D01*
X39925Y-41494D01*
X40333Y-41661D01*
X40774Y-41660D01*
X41177Y-41494D01*
X41290Y-41358D01*
X41290Y-42917D01*
X41211Y-42884D01*
X41074Y-42884D01*
X40948Y-42936D01*
X40851Y-43033D01*
X40798Y-43159D01*
X40798Y-43296D01*
X40850Y-43422D01*
X40947Y-43519D01*
X41073Y-43572D01*
X41210Y-43572D01*
X41336Y-43520D01*
X41433Y-43423D01*
X41486Y-43297D01*
X41486Y-44892D01*
X41434Y-44766D01*
X41337Y-44669D01*
X41211Y-44616D01*
X41074Y-44616D01*
X40948Y-44668D01*
X40851Y-44765D01*
X40798Y-44891D01*
X40798Y-45028D01*
X40850Y-45154D01*
X40947Y-45251D01*
X41073Y-45304D01*
X41210Y-45304D01*
X41336Y-45252D01*
X41433Y-45155D01*
X41486Y-45029D01*
X41486Y-46759D01*
X41479Y-46757D01*
X41412Y-46757D01*
X40412Y-46757D01*
X40350Y-46782D01*
X40303Y-46830D01*
X40277Y-46891D01*
X40277Y-46958D01*
X40277Y-47958D01*
X40302Y-48020D01*
X40350Y-48067D01*
X40411Y-48093D01*
X40478Y-48093D01*
X41478Y-48093D01*
X41540Y-48068D01*
X41587Y-48020D01*
X41613Y-47959D01*
X41613Y-57536D01*
X41584Y-57466D01*
X41584Y-49530D01*
X41576Y-49277D01*
X41496Y-49083D01*
X41410Y-49028D01*
X41342Y-49096D01*
X41342Y-48960D01*
X41287Y-48874D01*
X41050Y-48786D01*
X40797Y-48794D01*
X40603Y-48874D01*
X40548Y-48960D01*
X40945Y-49357D01*
X41342Y-48960D01*
X41342Y-49096D01*
X41013Y-49425D01*
X41410Y-49822D01*
X41496Y-49767D01*
X41584Y-49530D01*
X41584Y-57466D01*
X41494Y-57248D01*
X41358Y-57135D01*
X41342Y-57151D01*
X41342Y-49890D01*
X40945Y-49493D01*
X40877Y-49561D01*
X40877Y-49425D01*
X40480Y-49028D01*
X40394Y-49083D01*
X40306Y-49320D01*
X40314Y-49573D01*
X40394Y-49767D01*
X40480Y-49822D01*
X40877Y-49425D01*
X40877Y-49561D01*
X40548Y-49890D01*
X40603Y-49976D01*
X40840Y-50064D01*
X41093Y-50056D01*
X41287Y-49976D01*
X41342Y-49890D01*
X41342Y-57151D01*
X41290Y-57203D01*
X41290Y-57067D01*
X41177Y-56931D01*
X40769Y-56764D01*
X40328Y-56765D01*
X39925Y-56931D01*
X39812Y-57067D01*
X40551Y-57806D01*
X41290Y-57067D01*
X41290Y-57203D01*
X40619Y-57874D01*
X41358Y-58613D01*
X41494Y-58500D01*
X41661Y-58092D01*
X41661Y-58812D01*
X41181Y-58812D01*
X41290Y-58681D01*
X40586Y-57977D01*
X40551Y-57942D01*
X40483Y-57874D01*
X40448Y-57839D01*
X39744Y-57135D01*
X39613Y-57243D01*
X39613Y-41181D01*
X39744Y-41290D01*
X40448Y-40586D01*
X40483Y-40551D01*
X40551Y-40483D01*
X40586Y-40448D01*
X41290Y-39744D01*
X41181Y-39613D01*
X44254Y-39613D01*
X44156Y-39711D01*
X44089Y-39873D01*
X44089Y-40049D01*
X44156Y-40211D01*
X44281Y-40336D01*
X44443Y-40403D01*
X44619Y-40403D01*
X44781Y-40336D01*
X44906Y-40211D01*
X44973Y-40049D01*
X44973Y-39873D01*
X44906Y-39711D01*
X44808Y-39613D01*
X45254Y-39613D01*
X45156Y-39711D01*
X45089Y-39873D01*
X45089Y-40049D01*
X45156Y-40211D01*
X45281Y-40336D01*
X45443Y-40403D01*
X45619Y-40403D01*
X45781Y-40336D01*
X45906Y-40211D01*
X45973Y-40049D01*
X45973Y-39873D01*
X45906Y-39711D01*
X45808Y-39613D01*
X46254Y-39613D01*
X46156Y-39711D01*
X46089Y-39873D01*
X46089Y-40049D01*
X46156Y-40211D01*
X46281Y-40336D01*
X46443Y-40403D01*
X46619Y-40403D01*
X46781Y-40336D01*
X46906Y-40211D01*
X46973Y-40049D01*
X46973Y-39873D01*
X46906Y-39711D01*
X46808Y-39613D01*
X47254Y-39613D01*
X47156Y-39711D01*
X47089Y-39873D01*
X47089Y-40049D01*
X47156Y-40211D01*
X47281Y-40336D01*
X47443Y-40403D01*
X47619Y-40403D01*
X47781Y-40336D01*
X47906Y-40211D01*
X47973Y-40049D01*
X47973Y-39873D01*
X47906Y-39711D01*
X47808Y-39613D01*
X48254Y-39613D01*
X48156Y-39711D01*
X48089Y-39873D01*
X48089Y-40049D01*
X48156Y-40211D01*
X48281Y-40336D01*
X48340Y-40360D01*
X48378Y-40416D01*
X49093Y-41132D01*
X49084Y-41155D01*
X49084Y-41324D01*
X49148Y-41480D01*
X49268Y-41599D01*
X49423Y-41664D01*
X49592Y-41664D01*
X49748Y-41600D01*
X49867Y-41480D01*
X49932Y-41325D01*
X49932Y-41183D01*
X50569Y-41821D01*
X50560Y-41844D01*
X50560Y-42013D01*
X50624Y-42169D01*
X50744Y-42288D01*
X50899Y-42353D01*
X51068Y-42353D01*
X51224Y-42289D01*
X51343Y-42169D01*
X51408Y-42014D01*
X51408Y-41968D01*
X51433Y-41993D01*
X51588Y-42058D01*
X51757Y-42058D01*
X51913Y-41994D01*
X52032Y-41874D01*
X52097Y-41719D01*
X52097Y-41673D01*
X52122Y-41698D01*
X52145Y-41707D01*
X52145Y-41937D01*
X51681Y-42401D01*
X48219Y-42401D01*
X46708Y-40890D01*
X46638Y-40843D01*
X46555Y-40826D01*
X46530Y-40826D01*
X46521Y-40803D01*
X46401Y-40684D01*
X46246Y-40619D01*
X46077Y-40619D01*
X45921Y-40683D01*
X45802Y-40803D01*
X45737Y-40958D01*
X45737Y-41127D01*
X45801Y-41283D01*
X45921Y-41402D01*
X46076Y-41467D01*
X46245Y-41467D01*
X46401Y-41403D01*
X46504Y-41298D01*
X47976Y-42771D01*
X47977Y-42771D01*
X48047Y-42818D01*
X48130Y-42835D01*
X51771Y-42835D01*
X51771Y-42834D01*
X51854Y-42818D01*
X51924Y-42771D01*
X52515Y-42181D01*
X52515Y-42180D01*
X52562Y-42110D01*
X52578Y-42028D01*
X52579Y-42027D01*
X52579Y-41708D01*
X52602Y-41699D01*
X52721Y-41579D01*
X52786Y-41424D01*
X52786Y-41255D01*
X52722Y-41099D01*
X52602Y-40980D01*
X52447Y-40915D01*
X52278Y-40915D01*
X52122Y-40979D01*
X52003Y-41099D01*
X51954Y-41215D01*
X51954Y-40046D01*
X51917Y-40009D01*
X51579Y-40009D01*
X51579Y-40347D01*
X51616Y-40384D01*
X51835Y-40383D01*
X51889Y-40361D01*
X51930Y-40319D01*
X51953Y-40265D01*
X51953Y-40207D01*
X51954Y-40046D01*
X51954Y-41215D01*
X51938Y-41254D01*
X51938Y-41299D01*
X51913Y-41275D01*
X51758Y-41210D01*
X51589Y-41210D01*
X51564Y-41219D01*
X51483Y-41138D01*
X51483Y-40347D01*
X51483Y-40009D01*
X51145Y-40009D01*
X51108Y-40046D01*
X51109Y-40207D01*
X51109Y-40265D01*
X51132Y-40319D01*
X51173Y-40361D01*
X51227Y-40383D01*
X51446Y-40384D01*
X51483Y-40347D01*
X51483Y-41138D01*
X50748Y-40403D01*
X50748Y-40349D01*
X50781Y-40336D01*
X50906Y-40211D01*
X50973Y-40049D01*
X50973Y-39873D01*
X50906Y-39711D01*
X50808Y-39613D01*
X51127Y-39613D01*
X51109Y-39657D01*
X51109Y-39715D01*
X51108Y-39876D01*
X51145Y-39913D01*
X51433Y-39913D01*
X51483Y-39913D01*
X51579Y-39913D01*
X51629Y-39913D01*
X51917Y-39913D01*
X51954Y-39876D01*
X51953Y-39715D01*
X51953Y-39657D01*
X51934Y-39613D01*
X57243Y-39613D01*
X57135Y-39744D01*
X57839Y-40448D01*
X57874Y-40483D01*
X57942Y-40551D01*
X57977Y-40586D01*
X58681Y-41290D01*
X58812Y-41181D01*
X58812Y-57243D01*
M02*
