M48
INCH,TZ
T1C0.032
T2C0.035
T3C0.039
T4C0.040
T5C0.060
T6C0.079
T7C0.118
%
G90
G05
T1
X44531Y-39961
X45531Y-39961
X46531Y-39961
X47531Y-39961
X48531Y-39961
X49531Y-39961
X50531Y-39961
X51531Y-39961
X57874Y-45563
X57874Y-46563
X57874Y-48713
X57874Y-49713
X58110Y-42571
X58110Y-43571
T2
X41142Y-43228
X41142Y-44960
X43110Y-43504
X43110Y-44685
X43701Y-42126
X43898Y-44094
X44488Y-45276
X45472Y-46260
X46161Y-41043
X46260Y-45571
X46457Y-50886
X46850Y-53543
X46851Y-42717
X46929Y-52205
X47441Y-56201
X47539Y-45571
X47638Y-43898
X48189Y-58425
X48524Y-42027
X48661Y-52047
X48661Y-56614
X48898Y-57795
X49213Y-45571
X49213Y-54134
X49508Y-41240
X50197Y-47244
X50787Y-52559
X50984Y-41929
X51102Y-54803
X51496Y-55984
X51673Y-41634
X52067Y-50295
X52165Y-46358
X52165Y-48130
X52165Y-51772
X52362Y-41339
X52559Y-53346
X52598Y-55905
X52953Y-51181
X53150Y-46063
X53150Y-46752
X53248Y-54626
X53307Y-57810
X53839Y-44094
X54035Y-55413
X54409Y-54252
X54724Y-46063
X54724Y-46752
X56220Y-56772
T3
X44520Y-53543
X44520Y-54543
X53905Y-52543
X53905Y-53543
T4
X44669Y-57874
X45669Y-57874
X46669Y-57874
T5
X40945Y-47425
X40945Y-49425
T6
X42520Y-51543
X42520Y-55543
X55905Y-51543
X55905Y-55543
T7
X40551Y-40551
X40551Y-57874
X57874Y-40551
X57874Y-57874
T0
M30
